<?xml version="1.0" standalone="no"?>
<!DOCTYPE svg PUBLIC "-//W3C//DTD SVG 20010904//EN"
 "http://www.w3.org/TR/2001/REC-SVG-20010904/DTD/svg10.dtd">
<svg version="1.0" xmlns="http://www.w3.org/2000/svg"
 width="300.000000pt" height="300.000000pt" viewBox="0 0 300.000000 300.000000"
 preserveAspectRatio="xMidYMid meet">
<metadata>
Created by potrace 1.10, written by Peter Selinger 2001-2011
</metadata>
<g transform="translate(0.000000,300.000000) scale(0.100000,-0.100000)"
fill="#000000" stroke="none">
<path d="M1370 2993 c-198 -19 -356 -65 -535 -153 -298 -148 -529 -379 -675
-675 -115 -234 -154 -402 -153 -665 0 -188 18 -313 65 -455 40 -122 105 -257
174 -362 142 -219 346 -403 578 -520 420 -212 926 -213 1348 -3 270 136 529
393 665 664 214 424 214 928 -1 1353 -104 207 -309 439 -501 566 -161 106
-349 187 -515 221 -143 30 -327 42 -450 29z m393 -38 c522 -92 973 -484 1137
-986 60 -181 75 -287 74 -494 -2 -481 -251 -936 -661 -1208 -677 -450 -1590
-263 -2044 418 -388 581 -311 1361 183 1856 232 232 519 376 848 424 116 17
337 13 463 -10z"/>
<path d="M1282 2721 c-20 -27 -20 -41 1 -41 5 0 7 6 4 14 -3 8 -1 16 5 18 9 3
22 38 14 38 -1 0 -12 -13 -24 -29z"/>
<path d="M1585 2733 c-27 -9 -56 -17 -64 -19 -8 -3 -11 -7 -8 -10 3 -3 31 2
63 11 34 10 73 14 98 11 l41 -6 -35 14 c-42 17 -34 17 -95 -1z"/>
<path d="M1418 2718 c-12 -3 -38 -6 -57 -7 -19 -1 -32 -3 -29 -6 8 -8 168 7
168 15 0 9 -49 8 -82 -2z"/>
<path d="M1810 2688 c0 -6 3 -8 7 -5 7 8 72 -30 90 -53 11 -13 12 -13 12 0 1
17 -70 70 -93 70 -9 0 -16 -5 -16 -12z"/>
<path d="M1145 2669 c-16 -5 -37 -6 -45 -3 -8 3 -11 2 -7 -2 4 -4 -19 -16 -51
-26 -61 -19 -123 -54 -130 -75 -6 -19 17 -16 45 7 14 11 29 17 34 14 5 -3 6 2
3 10 -3 9 -1 16 4 16 20 0 21 -16 1 -46 -25 -38 -24 -52 1 -29 11 10 24 32 28
49 5 20 16 32 34 37 22 6 25 4 21 -12 -3 -11 0 -19 6 -19 6 0 11 4 11 10 0 5
13 16 30 25 16 8 34 24 40 35 6 11 9 20 8 19 -2 0 -16 -5 -33 -10z"/>
<path d="M1190 2660 c0 -12 43 -23 67 -17 10 3 3 5 -15 6 -19 1 -31 5 -27 11
3 6 -1 10 -9 10 -9 0 -16 -4 -16 -10z"/>
<path d="M2013 2623 c12 -19 -21 -36 -56 -30 l-32 6 35 -17 c19 -10 58 -35 85
-55 28 -21 55 -41 60 -45 108 -78 223 -238 270 -372 8 -25 18 -52 22 -60 8
-19 11 -35 18 -85 3 -22 12 -58 20 -80 12 -35 14 -37 15 -13 0 15 -4 29 -9 32
-8 5 -21 84 -22 129 0 9 -4 17 -8 17 -5 0 -11 14 -15 31 -3 17 -26 72 -50 123
-65 133 -180 262 -303 340 -48 29 -49 32 -27 57 12 13 12 19 3 25 -7 4 -10 3
-6 -3z"/>
<path d="M1138 2575 c-20 -14 -48 -25 -62 -25 -26 0 -35 -14 -16 -25 6 -3 10
-1 10 4 0 6 7 11 15 11 18 0 51 18 79 43 28 24 17 21 -26 -8z"/>
<path d="M1880 2555 c0 -51 -107 -159 -177 -178 -98 -26 -147 -113 -106 -189
17 -31 19 -44 12 -84 -9 -45 -6 -64 7 -51 3 3 8 23 11 45 l5 39 42 -4 c119
-12 236 142 236 313 0 72 -9 124 -21 124 -5 0 -9 -7 -9 -15z m8 -122 c-4 -69
-10 -99 -31 -139 -35 -69 -74 -114 -114 -130 -37 -16 -89 -18 -98 -5 -8 14 51
78 99 106 54 32 103 83 111 118 10 39 -1 34 -24 -11 -13 -26 -43 -55 -91 -87
-40 -27 -82 -63 -94 -82 l-23 -33 -11 25 c-34 75 17 148 117 170 40 9 123 82
141 125 7 17 15 30 17 30 3 0 3 -39 1 -87z"/>
<path d="M934 2525 c-3 -8 -22 -17 -42 -21 -21 -4 -43 -11 -49 -17 -7 -5 -13
-7 -13 -4 0 2 -17 -11 -37 -30 -26 -23 -34 -36 -26 -41 8 -5 9 -13 3 -22 -6
-8 -10 -19 -9 -25 0 -5 9 8 21 30 31 60 67 95 100 95 15 0 28 -5 28 -12 0 -14
23 18 33 45 8 21 -1 23 -9 2z"/>
<path d="M738 2325 c-10 -13 -17 -34 -17 -47 1 -20 2 -21 6 -3 3 11 12 28 20
37 8 9 13 21 12 26 -2 6 -12 0 -21 -13z"/>
<path d="M707 2236 c-13 -33 -17 -104 -9 -141 l10 -40 1 44 c1 31 8 52 23 68
12 13 18 26 14 30 -4 4 -11 1 -15 -6 -13 -20 -23 3 -15 34 6 26 0 35 -9 11z"/>
<path d="M774 2115 c-21 -30 -34 -58 -31 -61 3 -3 13 9 23 28 9 18 20 35 24
38 10 7 32 50 25 50 -2 0 -21 -25 -41 -55z"/>
<path d="M642 2130 c-8 -13 -9 -27 -2 -45 5 -13 7 -30 5 -37 -3 -7 -9 -34 -14
-60 -7 -39 -6 -48 6 -48 8 0 11 5 8 10 -4 6 -2 16 3 23 11 15 23 59 13 53 -3
-2 -7 14 -8 37 0 23 4 45 9 48 6 4 7 13 1 23 -8 14 -10 13 -21 -4z"/>
<path d="M1405 2081 c-47 -12 -70 -27 -109 -73 -50 -58 -71 -132 -57 -199 16
-73 44 -121 116 -199 70 -77 93 -126 75 -160 -6 -12 -9 -24 -7 -27 12 -11 195
61 255 101 79 51 152 125 181 181 85 166 17 355 -128 355 -53 0 -88 -14 -122
-51 l-29 -31 -9 24 c-10 27 -65 78 -84 78 -7 0 -21 2 -32 4 -11 3 -33 1 -50
-3z m83 -22 c41 -14 44 -29 19 -80 -16 -32 -22 -61 -21 -107 l1 -63 -29 52
c-15 29 -28 55 -28 59 0 4 12 17 26 31 14 13 35 38 47 54 13 20 1 12 -34 -23
l-55 -52 -39 40 c-64 66 -62 45 2 -23 63 -68 91 -118 118 -212 17 -59 17 -59
-5 -77 -12 -10 -26 -18 -31 -18 -15 0 -90 160 -109 234 -13 50 -19 62 -19 40
-2 -52 65 -219 106 -266 25 -28 -3 -28 -48 1 -84 53 -125 172 -100 292 13 64
39 93 98 114 47 17 62 18 101 4z m304 -30 c11 -6 18 -16 15 -22 -2 -7 -7 -23
-11 -37 -5 -19 -2 -16 13 10 13 22 20 29 21 18 0 -36 -87 -164 -170 -247 -47
-47 -117 -108 -157 -135 -52 -35 -70 -53 -66 -65 4 -9 -4 -4 -15 11 -25 30
-27 38 -9 38 7 0 50 25 97 57 93 62 212 175 253 240 24 39 25 44 13 75 -7 18
-16 42 -20 52 -13 39 -14 9 0 -43 13 -51 12 -55 -8 -83 -19 -27 -22 -28 -31
-13 -5 9 -7 32 -4 51 3 19 2 34 -4 34 -12 0 -12 -76 1 -100 11 -20 -11 -47
-29 -35 -28 17 -37 154 -13 192 15 23 83 24 124 2z m-220 -89 l13 -55 6 40 5
40 21 -45 c32 -69 39 -127 17 -151 -9 -10 -21 -19 -25 -19 -5 0 -20 35 -34 78
-20 62 -24 69 -20 34 3 -24 15 -62 26 -84 17 -33 18 -42 7 -49 -7 -5 -16 -9
-19 -9 -11 0 -48 46 -58 73 -18 46 -13 137 10 187 23 52 31 46 51 -40z m71 27
l-6 -48 -17 28 c-17 27 -17 29 3 50 11 13 21 22 23 20 1 -1 0 -24 -3 -50z
m217 -11 c0 -8 -9 -16 -20 -19 -23 -6 -24 -3 -9 24 11 21 29 17 29 -5z m-585
-94 c0 -70 5 -95 22 -128 23 -43 94 -114 116 -114 6 0 4 -5 -7 -11 -16 -10
-25 -5 -59 32 -45 49 -87 132 -94 187 -4 30 11 122 20 122 1 0 2 -39 2 -88z
m599 52 c3 -9 6 -31 6 -49 0 -30 -4 -35 -43 -50 -24 -9 -59 -15 -77 -13 l-32
3 20 25 c12 14 21 20 22 14 0 -8 11 -9 36 -4 51 12 56 22 6 14 -46 -7 -51 0
-24 32 33 41 76 55 86 28z m-10 -150 c-21 -65 -33 -77 -58 -59 -18 14 -18 15
7 47 66 84 76 86 51 12z m-317 -43 c17 -10 17 -12 -1 -26 -19 -14 -21 -12 -38
43 -22 72 -22 76 2 30 11 -20 28 -42 37 -47z m261 39 c-19 -26 -28 -31 -52
-26 -16 3 -42 6 -59 6 l-30 0 23 25 c18 19 31 24 50 20 14 -3 39 -1 55 4 17 4
32 7 33 5 2 -1 -7 -17 -20 -34z m-42 -49 c23 -10 45 -24 49 -31 4 -7 -14 -33
-49 -66 -60 -59 -66 -59 -114 -14 -42 39 -56 68 -42 86 12 13 16 11 40 -14 31
-34 78 -67 86 -59 3 2 -10 14 -29 26 -78 48 -87 91 -20 91 21 0 57 -9 79 -19z
m-141 -109 c-6 -6 -75 22 -75 30 0 4 8 11 18 17 13 8 22 4 39 -17 11 -15 20
-29 18 -30z m1 -36 l37 -32 -24 -15 c-61 -39 -189 -79 -189 -59 0 6 5 8 12 4
8 -5 9 -2 3 12 -4 10 -10 35 -12 54 -4 32 0 37 38 61 50 32 75 27 135 -25z
m43 5 c13 -10 19 -21 14 -24 -6 -4 -21 5 -33 18 -27 29 -16 33 19 6z"/>
<path d="M1480 1569 c0 -17 50 -93 56 -86 3 3 -9 26 -25 53 -17 26 -31 41 -31
33z"/>
<path d="M581 1991 c-11 -7 -11 -15 -2 -41 6 -18 8 -36 5 -41 -3 -5 -1 -9 5
-9 5 0 9 22 8 50 -1 27 -2 50 -2 50 0 0 -6 -4 -14 -9z"/>
<path d="M605 1868 c4 -13 7 -41 7 -63 -1 -36 0 -38 9 -15 12 28 2 100 -13
100 -6 0 -7 -9 -3 -22z"/>
<path d="M2436 1778 c3 -21 0 -47 -6 -58 -7 -13 -7 -20 -1 -20 17 0 24 49 12
83 l-11 32 6 -37z"/>
<path d="M583 1730 c10 -44 49 -205 53 -219 3 -8 7 -11 11 -7 3 3 1 23 -5 43
-6 21 -19 72 -28 113 -9 41 -21 80 -27 85 -6 7 -8 1 -4 -15z"/>
<path d="M2330 1477 c-19 -34 -35 -65 -35 -69 0 -11 -139 -178 -147 -178 -5 0
-8 -6 -8 -14 0 -8 -7 -16 -15 -20 -8 -3 -15 -10 -15 -16 0 -12 -39 -71 -55
-82 -6 -5 -5 -8 2 -8 7 0 28 24 46 53 19 28 44 63 57 77 64 71 133 163 174
233 48 81 51 87 39 87 -5 0 -24 -28 -43 -63z"/>
<path d="M674 1447 c4 -38 13 -64 26 -77 12 -12 18 -25 15 -30 -9 -14 5 -51
16 -44 5 3 20 -19 33 -48 16 -36 48 -77 97 -125 41 -39 75 -70 76 -69 2 2 -29
36 -68 77 -39 40 -79 89 -89 109 -10 19 -34 67 -54 105 -20 39 -38 88 -41 109
-3 22 -8 42 -12 45 -3 3 -3 -20 1 -52z"/>
<path d="M1447 1365 c-15 -14 -37 -25 -48 -25 -10 0 -19 -4 -19 -10 0 -13 16
-13 42 1 30 16 30 7 1 -34 -24 -34 -28 -36 -47 -24 -168 107 -476 66 -476 -63
0 -160 296 -159 466 2 20 18 37 26 47 22 25 -9 21 -23 -10 -35 -20 -7 -24 -12
-14 -18 9 -6 6 -10 -11 -15 -22 -7 -22 -7 -3 -15 19 -8 19 -9 -6 -19 -31 -12
-41 -34 -33 -70 15 -62 22 -65 59 -27 39 38 42 52 20 81 -17 23 -20 43 -3 26
7 -7 16 -12 22 -12 6 0 5 5 -2 12 -7 7 -12 19 -12 27 0 11 4 10 15 -5 17 -22
20 -12 5 16 -18 34 4 29 48 -10 130 -113 285 -132 380 -45 33 29 37 39 37 80
0 40 -4 50 -29 70 -40 32 -146 65 -210 65 -69 0 -128 -21 -183 -66 -64 -52
-82 -39 -38 28 19 29 35 61 35 70 0 22 1 22 -33 -7z m-147 -79 c40 -13 74 -27
77 -30 17 -16 -94 -93 -182 -126 -72 -27 -167 -30 -210 -8 -54 28 -71 58 -67
110 2 22 78 66 133 78 67 14 169 4 249 -24z m467 19 c66 -20 117 -55 121 -84
6 -36 -15 -74 -55 -101 -32 -22 -48 -25 -117 -25 -70 0 -88 4 -131 28 -27 15
-68 44 -89 64 l-40 37 42 36 c22 20 56 42 74 47 49 16 138 15 195 -2z m-399
-205 c-9 -15 -10 -22 -1 -31 14 -14 33 -3 32 19 0 11 -3 12 -6 5 -2 -7 -9 -13
-15 -13 -6 0 -6 6 2 15 18 22 30 18 30 -9 0 -14 -10 -30 -25 -40 -24 -16 -24
-15 -31 18 -6 36 0 56 17 56 5 0 4 -9 -3 -20z"/>
<path d="M2304 1295 c0 -19 5 -34 10 -32 6 2 10 16 10 32 0 16 -4 30 -10 32
-5 2 -10 -13 -10 -32z"/>
<path d="M2199 1183 c-21 -24 -31 -53 -19 -53 6 0 10 7 10 15 0 7 7 18 16 23
9 5 15 15 13 21 -3 9 -10 7 -20 -6z"/>
<path d="M2080 1059 c-18 -7 -21 -12 -11 -18 10 -6 6 -13 -16 -28 -15 -11 -35
-23 -43 -27 -8 -4 -26 -13 -40 -21 -25 -14 -25 -15 -3 -15 13 0 31 7 40 15 10
8 33 25 52 37 34 23 71 69 55 67 -5 0 -20 -5 -34 -10z"/>
<path d="M950 1043 c0 -10 125 -93 139 -93 5 0 11 -4 13 -9 5 -15 121 -80 130
-74 12 6 5 14 -16 17 -13 2 -142 82 -238 148 -16 10 -28 15 -28 11z"/>
<path d="M1905 919 c-4 -5 -17 -9 -28 -8 -50 3 -81 -1 -71 -11 7 -7 27 -7 57
-1 26 5 49 5 52 1 7 -12 55 -18 61 -9 3 5 -9 9 -26 9 -25 0 -31 4 -26 15 6 17
-9 21 -19 4z"/>
<path d="M1745 908 c-11 -7 -27 -13 -35 -14 -38 -4 -98 -15 -125 -23 -49 -15
2 -12 68 3 37 9 60 10 64 3 3 -5 10 -3 15 7 5 9 15 16 23 16 8 0 17 5 20 10 8
13 -5 12 -30 -2z"/>
<path d="M1246 861 c-6 -9 43 -27 97 -37 24 -4 37 -2 37 5 0 6 -17 11 -37 11
-21 0 -50 7 -65 14 -15 8 -30 11 -32 7z"/>
<path d="M1427 853 c18 -2 50 -2 70 0 21 2 7 4 -32 4 -38 0 -55 -2 -38 -4z"/>
<path d="M1520 830 c-25 -4 -36 -8 -25 -9 11 0 37 -4 58 -7 30 -5 37 -4 37 10
0 9 -6 15 -12 14 -7 0 -33 -4 -58 -8z"/>
<path d="M670 716 c0 -9 5 -16 12 -16 9 0 9 -3 0 -12 -13 -13 -16 -48 -4 -48
4 0 12 10 17 22 6 12 21 25 35 29 29 8 130 11 130 4 0 -3 -45 -63 -100 -134
-55 -71 -100 -132 -100 -135 0 -3 60 -6 133 -8 l134 -3 1 55 1 54 -19 -31
c-23 -38 -73 -56 -143 -51 l-48 3 100 132 c56 72 101 133 101 136 0 2 -51 4
-114 4 -63 1 -119 4 -125 7 -6 4 -11 0 -11 -8z"/>
<path d="M1514 702 c15 -18 13 -26 -29 -133 -25 -63 -52 -120 -62 -126 -22
-17 -10 -28 15 -14 13 7 22 7 29 0 6 -6 21 -9 34 -7 24 4 24 4 -3 16 -32 13
-32 12 -16 63 l11 39 58 0 c58 0 59 0 74 -36 19 -46 19 -64 0 -64 -8 0 -15 -4
-15 -10 0 -13 37 -13 45 0 3 6 15 5 30 -2 33 -15 43 -3 17 19 -11 10 -43 72
-71 138 -40 96 -54 120 -70 120 -10 0 -23 3 -27 8 -4 4 -14 7 -22 7 -13 0 -12
-3 2 -18z m86 -139 c0 -2 -22 -3 -49 -3 l-50 0 18 43 c10 23 22 51 25 62 6 16
12 9 32 -39 13 -33 24 -61 24 -63z"/>
<path d="M2235 609 c-21 -10 -59 -68 -51 -77 12 -11 38 10 47 38 12 32 43 41
53 15 9 -25 -3 -42 -52 -67 -49 -25 -65 -56 -42 -84 16 -19 64 -18 81 2 11 14
13 14 21 0 5 -9 19 -16 30 -16 17 0 19 3 10 12 -7 7 -12 40 -12 78 0 38 -5 73
-12 82 -17 21 -49 29 -73 17z m51 -124 c-8 -32 -42 -51 -62 -34 -21 17 -18 26
23 54 40 26 49 21 39 -20z"/>
<path d="M1017 599 c-24 -14 -47 -62 -47 -99 0 -43 39 -80 83 -80 36 0 88 32
74 46 -4 4 -13 2 -19 -4 -32 -32 -108 3 -108 48 0 18 7 20 69 20 l69 0 -19 40
c-17 35 -24 40 -52 40 -17 0 -40 -5 -50 -11z m61 -11 c7 -7 12 -20 12 -30 0
-15 -8 -18 -45 -18 -51 0 -56 10 -19 39 31 24 36 25 52 9z"/>
<path d="M1182 597 c19 -15 21 -23 19 -99 -1 -44 -5 -58 -16 -58 -8 0 -15 -4
-15 -10 0 -12 20 -13 40 0 9 5 19 5 27 -2 8 -6 17 -7 21 -3 4 4 1 10 -5 12
-21 8 -17 116 5 136 21 20 48 22 58 6 11 -19 4 -133 -9 -141 -19 -12 0 -20 22
-9 13 7 22 8 26 1 3 -5 13 -10 22 -10 15 0 14 2 0 18 -12 13 -17 37 -17 76 0
76 -12 96 -55 96 -18 0 -41 -7 -49 -16 -15 -14 -17 -14 -32 0 -8 9 -25 16 -37
16 -20 -1 -20 -2 -5 -13z"/>
<path d="M1749 593 c18 -12 21 -25 21 -83 0 -58 3 -71 19 -80 28 -15 62 -12
82 6 17 15 19 15 34 0 9 -9 26 -16 38 -16 l21 0 -22 20 c-30 28 -32 120 -3
149 18 18 18 19 -31 18 -32 -1 -44 -4 -33 -9 24 -14 21 -112 -5 -138 -24 -24
-34 -25 -54 -4 -21 20 -22 111 -1 134 13 15 10 16 -36 17 -46 1 -49 0 -30 -14z"/>
<path d="M1998 594 c19 -13 22 -24 22 -78 0 -55 -3 -66 -22 -79 l-23 -16 22 0
c12 -1 25 4 28 9 5 8 11 7 20 0 8 -6 24 -10 37 -8 23 4 22 5 -4 16 -26 11 -28
16 -28 70 0 35 6 66 14 78 14 18 16 18 33 1 15 -15 16 -20 5 -38 -19 -29 -6
-37 20 -12 15 16 19 28 14 47 -5 22 -12 26 -40 26 -19 0 -36 -6 -39 -12 -4
-10 -7 -10 -18 0 -7 6 -24 12 -38 12 l-25 0 22 -16z"/>
</g>
</svg>
